<?xml version="1.0" encoding="UTF-8" standalone="no"?>
<!DOCTYPE svg PUBLIC "-//W3C//DTD SVG 1.1//EN"
 "http://www.w3.org/Graphics/SVG/1.1/DTD/svg11.dtd">
<!-- Generated by graphviz version 2.43.0 (0)
 -->
<!-- Title: g Pages: 1 -->
<svg width="639pt" height="332pt"
 viewBox="0.00 0.00 639.00 332.00" xmlns="http://www.w3.org/2000/svg" xmlns:xlink="http://www.w3.org/1999/xlink">
<g id="graph0" class="graph" transform="scale(1 1) rotate(0) translate(4 328)">
<title>g</title>
<polygon fill="white" stroke="transparent" points="-4,4 -4,-328 635,-328 635,4 -4,4"/>
<!-- _4dfbb28a53db4770d8c9efa105b2d3ca -->
<g id="node1" class="node">
<title>_4dfbb28a53db4770d8c9efa105b2d3ca</title>
<ellipse fill="grey" stroke="black" cx="111" cy="-234" rx="47.39" ry="18"/>
<text text-anchor="middle" x="111" y="-230.3" font-family="Times,serif" font-size="14.00">A spoon</text>
</g>
<!-- _7f2d897b3949441090ec5b405dbeebb1 -->
<g id="node2" class="node">
<title>_7f2d897b3949441090ec5b405dbeebb1</title>
<polygon fill="palegreen" stroke="black" points="118,-180 0,-180 0,-144 118,-144 118,-180"/>
<text text-anchor="middle" x="59" y="-158.3" font-family="Times,serif" font-size="14.00">teatime/spoon</text>
</g>
<!-- _4dfbb28a53db4770d8c9efa105b2d3ca&#45;&gt;_7f2d897b3949441090ec5b405dbeebb1 -->
<g id="edge1" class="edge">
<title>_4dfbb28a53db4770d8c9efa105b2d3ca&#45;&gt;_7f2d897b3949441090ec5b405dbeebb1</title>
<path fill="none" stroke="black" d="M98.68,-216.41C92.51,-208.12 84.92,-197.89 78.03,-188.62"/>
<polygon fill="black" stroke="black" points="80.73,-186.39 71.96,-180.45 75.11,-190.56 80.73,-186.39"/>
</g>
<!-- _5b1d149c29769d3624f4e34af2330bec -->
<g id="node3" class="node">
<title>_5b1d149c29769d3624f4e34af2330bec</title>
<ellipse fill="grey" stroke="black" cx="172" cy="-162" rx="36.29" ry="18"/>
<text text-anchor="middle" x="172" y="-158.3" font-family="Times,serif" font-size="14.00">A cup</text>
</g>
<!-- _f9810bce5bbcd6a4d4b834b75279ddce -->
<g id="node4" class="node">
<title>_f9810bce5bbcd6a4d4b834b75279ddce</title>
<polygon fill="palegreen" stroke="black" points="222.5,-108 121.5,-108 121.5,-72 222.5,-72 222.5,-108"/>
<text text-anchor="middle" x="172" y="-86.3" font-family="Times,serif" font-size="14.00">teatime/cup</text>
</g>
<!-- _5b1d149c29769d3624f4e34af2330bec&#45;&gt;_f9810bce5bbcd6a4d4b834b75279ddce -->
<g id="edge2" class="edge">
<title>_5b1d149c29769d3624f4e34af2330bec&#45;&gt;_f9810bce5bbcd6a4d4b834b75279ddce</title>
<path fill="none" stroke="black" d="M172,-143.7C172,-135.98 172,-126.71 172,-118.11"/>
<polygon fill="black" stroke="black" points="175.5,-118.1 172,-108.1 168.5,-118.1 175.5,-118.1"/>
</g>
<!-- _63d2ed416115be6cf86c48e10dacf755 -->
<g id="node5" class="node">
<title>_63d2ed416115be6cf86c48e10dacf755</title>
<ellipse fill="grey" stroke="black" cx="272" cy="-234" rx="69.59" ry="18"/>
<text text-anchor="middle" x="272" y="-230.3" font-family="Times,serif" font-size="14.00">Sugar in cup</text>
</g>
<!-- _63d2ed416115be6cf86c48e10dacf755&#45;&gt;_5b1d149c29769d3624f4e34af2330bec -->
<g id="edge3" class="edge">
<title>_63d2ed416115be6cf86c48e10dacf755&#45;&gt;_5b1d149c29769d3624f4e34af2330bec</title>
<path fill="none" stroke="black" d="M248.81,-216.76C234.53,-206.77 216.11,-193.88 200.89,-183.23"/>
<polygon fill="black" stroke="black" points="202.56,-180.12 192.36,-177.25 198.54,-185.85 202.56,-180.12"/>
</g>
<!-- _e520f89ffb54953975127f0474fc8ac6 -->
<g id="node6" class="node">
<title>_e520f89ffb54953975127f0474fc8ac6</title>
<polygon fill="orange" stroke="black" points="372,-180 226,-180 226,-144 372,-144 372,-180"/>
<text text-anchor="middle" x="299" y="-158.3" font-family="Times,serif" font-size="14.00">teatime/cup/sugar</text>
</g>
<!-- _63d2ed416115be6cf86c48e10dacf755&#45;&gt;_e520f89ffb54953975127f0474fc8ac6 -->
<g id="edge4" class="edge">
<title>_63d2ed416115be6cf86c48e10dacf755&#45;&gt;_e520f89ffb54953975127f0474fc8ac6</title>
<path fill="none" stroke="black" d="M278.54,-216.05C281.57,-208.18 285.26,-198.62 288.67,-189.79"/>
<polygon fill="black" stroke="black" points="292,-190.86 292.34,-180.28 285.47,-188.35 292,-190.86"/>
</g>
<!-- _fc7725b504dfe81a0923659641500bf6 -->
<g id="node7" class="node">
<title>_fc7725b504dfe81a0923659641500bf6</title>
<ellipse fill="grey" stroke="black" cx="456" cy="-162" rx="66.09" ry="18"/>
<text text-anchor="middle" x="456" y="-158.3" font-family="Times,serif" font-size="14.00">Steeped tea</text>
</g>
<!-- _63d2ed416115be6cf86c48e10dacf755&#45;&gt;_fc7725b504dfe81a0923659641500bf6 -->
<g id="edge5" class="edge">
<title>_63d2ed416115be6cf86c48e10dacf755&#45;&gt;_fc7725b504dfe81a0923659641500bf6</title>
<path fill="none" stroke="black" d="M309.68,-218.67C338.52,-207.69 378.46,-192.5 409.32,-180.76"/>
<polygon fill="black" stroke="black" points="410.9,-183.9 419,-177.08 408.41,-177.36 410.9,-183.9"/>
</g>
<!-- _e2ae5a6ebee14aca44ab9445c4149406 -->
<g id="node9" class="node">
<title>_e2ae5a6ebee14aca44ab9445c4149406</title>
<ellipse fill="grey" stroke="black" cx="400" cy="-90" rx="104.78" ry="18"/>
<text text-anchor="middle" x="400" y="-86.3" font-family="Times,serif" font-size="14.00">Boiling water in cup</text>
</g>
<!-- _fc7725b504dfe81a0923659641500bf6&#45;&gt;_e2ae5a6ebee14aca44ab9445c4149406 -->
<g id="edge9" class="edge">
<title>_fc7725b504dfe81a0923659641500bf6&#45;&gt;_e2ae5a6ebee14aca44ab9445c4149406</title>
<path fill="none" stroke="black" d="M442.44,-144.05C435.73,-135.67 427.5,-125.38 420.08,-116.1"/>
<polygon fill="black" stroke="black" points="422.8,-113.9 413.82,-108.28 417.33,-118.27 422.8,-113.9"/>
</g>
<!-- _e43f78155a7c2c42d6d65e1702ba0b0f -->
<g id="node11" class="node">
<title>_e43f78155a7c2c42d6d65e1702ba0b0f</title>
<polygon fill="orange" stroke="black" points="631,-108 523,-108 523,-72 631,-72 631,-108"/>
<text text-anchor="middle" x="577" y="-86.3" font-family="Times,serif" font-size="14.00">elapsed time</text>
</g>
<!-- _fc7725b504dfe81a0923659641500bf6&#45;&gt;_e43f78155a7c2c42d6d65e1702ba0b0f -->
<g id="edge10" class="edge">
<title>_fc7725b504dfe81a0923659641500bf6&#45;&gt;_e43f78155a7c2c42d6d65e1702ba0b0f</title>
<path fill="none" stroke="black" d="M482.85,-145.46C499.1,-136.07 520.09,-123.92 538.13,-113.49"/>
<polygon fill="black" stroke="black" points="540.35,-116.25 547.25,-108.21 536.84,-110.19 540.35,-116.25"/>
</g>
<!-- _6ac80c9b9d540f4035cde8e540cb0369 -->
<g id="node8" class="node">
<title>_6ac80c9b9d540f4035cde8e540cb0369</title>
<ellipse fill="grey" stroke="black" cx="178" cy="-306" rx="112.38" ry="18"/>
<text text-anchor="middle" x="178" y="-302.3" font-family="Times,serif" font-size="14.00">The perfect cup of tea</text>
</g>
<!-- _6ac80c9b9d540f4035cde8e540cb0369&#45;&gt;_4dfbb28a53db4770d8c9efa105b2d3ca -->
<g id="edge6" class="edge">
<title>_6ac80c9b9d540f4035cde8e540cb0369&#45;&gt;_4dfbb28a53db4770d8c9efa105b2d3ca</title>
<path fill="none" stroke="black" d="M161.78,-288.05C153.35,-279.24 142.9,-268.33 133.68,-258.69"/>
<polygon fill="black" stroke="black" points="136.05,-256.11 126.61,-251.31 130.99,-260.95 136.05,-256.11"/>
</g>
<!-- _6ac80c9b9d540f4035cde8e540cb0369&#45;&gt;_63d2ed416115be6cf86c48e10dacf755 -->
<g id="edge7" class="edge">
<title>_6ac80c9b9d540f4035cde8e540cb0369&#45;&gt;_63d2ed416115be6cf86c48e10dacf755</title>
<path fill="none" stroke="black" d="M200.75,-288.05C213.06,-278.89 228.41,-267.46 241.71,-257.56"/>
<polygon fill="black" stroke="black" points="244.17,-260.09 250.1,-251.31 239.99,-254.47 244.17,-260.09"/>
</g>
<!-- _f1b07b232490520bf0d7034d936250d9 -->
<g id="node10" class="node">
<title>_f1b07b232490520bf0d7034d936250d9</title>
<polygon fill="palegreen" stroke="black" points="473.5,-36 326.5,-36 326.5,0 473.5,0 473.5,-36"/>
<text text-anchor="middle" x="400" y="-14.3" font-family="Times,serif" font-size="14.00">teatime/cup/water</text>
</g>
<!-- _e2ae5a6ebee14aca44ab9445c4149406&#45;&gt;_f1b07b232490520bf0d7034d936250d9 -->
<g id="edge8" class="edge">
<title>_e2ae5a6ebee14aca44ab9445c4149406&#45;&gt;_f1b07b232490520bf0d7034d936250d9</title>
<path fill="none" stroke="black" d="M400,-71.7C400,-63.98 400,-54.71 400,-46.11"/>
<polygon fill="black" stroke="black" points="403.5,-46.1 400,-36.1 396.5,-46.1 403.5,-46.1"/>
</g>
</g>
</svg>
