<?xml version="1.0" encoding="UTF-8" standalone="no"?>
<!DOCTYPE svg PUBLIC "-//W3C//DTD SVG 1.1//EN"
 "http://www.w3.org/Graphics/SVG/1.1/DTD/svg11.dtd">
<!-- Generated by graphviz version 2.43.0 (0)
 -->
<!-- Title: g Pages: 1 -->
<svg width="530pt" height="260pt"
 viewBox="0.00 0.00 530.29 260.00" xmlns="http://www.w3.org/2000/svg" xmlns:xlink="http://www.w3.org/1999/xlink">
<g id="graph0" class="graph" transform="scale(1 1) rotate(0) translate(4 256)">
<title>g</title>
<polygon fill="white" stroke="transparent" points="-4,4 -4,-256 526.29,-256 526.29,4 -4,4"/>
<!-- _4dfbb28a53db4770d8c9efa105b2d3ca -->
<g id="node1" class="node">
<title>_4dfbb28a53db4770d8c9efa105b2d3ca</title>
<ellipse fill="grey" stroke="black" cx="111" cy="-162" rx="47.39" ry="18"/>
<text text-anchor="middle" x="111" y="-158.3" font-family="Times,serif" font-size="14.00">A spoon</text>
</g>
<!-- _7f2d897b3949441090ec5b405dbeebb1 -->
<g id="node2" class="node">
<title>_7f2d897b3949441090ec5b405dbeebb1</title>
<polygon fill="palegreen" stroke="black" points="118,-108 0,-108 0,-72 118,-72 118,-108"/>
<text text-anchor="middle" x="59" y="-86.3" font-family="Times,serif" font-size="14.00">teatime/spoon</text>
</g>
<!-- _4dfbb28a53db4770d8c9efa105b2d3ca&#45;&gt;_7f2d897b3949441090ec5b405dbeebb1 -->
<g id="edge1" class="edge">
<title>_4dfbb28a53db4770d8c9efa105b2d3ca&#45;&gt;_7f2d897b3949441090ec5b405dbeebb1</title>
<path fill="none" stroke="black" d="M98.68,-144.41C92.51,-136.12 84.92,-125.89 78.03,-116.62"/>
<polygon fill="black" stroke="black" points="80.73,-114.39 71.96,-108.45 75.11,-118.56 80.73,-114.39"/>
</g>
<!-- _5b1d149c29769d3624f4e34af2330bec -->
<g id="node3" class="node">
<title>_5b1d149c29769d3624f4e34af2330bec</title>
<ellipse fill="grey" stroke="black" cx="172" cy="-90" rx="36.29" ry="18"/>
<text text-anchor="middle" x="172" y="-86.3" font-family="Times,serif" font-size="14.00">A cup</text>
</g>
<!-- _f9810bce5bbcd6a4d4b834b75279ddce -->
<g id="node4" class="node">
<title>_f9810bce5bbcd6a4d4b834b75279ddce</title>
<polygon fill="palegreen" stroke="black" points="222.5,-36 121.5,-36 121.5,0 222.5,0 222.5,-36"/>
<text text-anchor="middle" x="172" y="-14.3" font-family="Times,serif" font-size="14.00">teatime/cup</text>
</g>
<!-- _5b1d149c29769d3624f4e34af2330bec&#45;&gt;_f9810bce5bbcd6a4d4b834b75279ddce -->
<g id="edge2" class="edge">
<title>_5b1d149c29769d3624f4e34af2330bec&#45;&gt;_f9810bce5bbcd6a4d4b834b75279ddce</title>
<path fill="none" stroke="black" d="M172,-71.7C172,-63.98 172,-54.71 172,-46.11"/>
<polygon fill="black" stroke="black" points="175.5,-46.1 172,-36.1 168.5,-46.1 175.5,-46.1"/>
</g>
<!-- _63d2ed416115be6cf86c48e10dacf755 -->
<g id="node5" class="node">
<title>_63d2ed416115be6cf86c48e10dacf755</title>
<ellipse fill="grey" stroke="black" cx="272" cy="-162" rx="69.59" ry="18"/>
<text text-anchor="middle" x="272" y="-158.3" font-family="Times,serif" font-size="14.00">Sugar in cup</text>
</g>
<!-- _63d2ed416115be6cf86c48e10dacf755&#45;&gt;_5b1d149c29769d3624f4e34af2330bec -->
<g id="edge3" class="edge">
<title>_63d2ed416115be6cf86c48e10dacf755&#45;&gt;_5b1d149c29769d3624f4e34af2330bec</title>
<path fill="none" stroke="black" d="M248.81,-144.76C234.53,-134.77 216.11,-121.88 200.89,-111.23"/>
<polygon fill="black" stroke="black" points="202.56,-108.12 192.36,-105.25 198.54,-113.85 202.56,-108.12"/>
</g>
<!-- _e520f89ffb54953975127f0474fc8ac6 -->
<g id="node6" class="node">
<title>_e520f89ffb54953975127f0474fc8ac6</title>
<polygon fill="palegreen" stroke="black" points="372,-108 226,-108 226,-72 372,-72 372,-108"/>
<text text-anchor="middle" x="299" y="-86.3" font-family="Times,serif" font-size="14.00">teatime/cup/sugar</text>
</g>
<!-- _63d2ed416115be6cf86c48e10dacf755&#45;&gt;_e520f89ffb54953975127f0474fc8ac6 -->
<g id="edge4" class="edge">
<title>_63d2ed416115be6cf86c48e10dacf755&#45;&gt;_e520f89ffb54953975127f0474fc8ac6</title>
<path fill="none" stroke="black" d="M278.54,-144.05C281.57,-136.18 285.26,-126.62 288.67,-117.79"/>
<polygon fill="black" stroke="black" points="292,-118.86 292.34,-108.28 285.47,-116.35 292,-118.86"/>
</g>
<!-- _fc7725b504dfe81a0923659641500bf6 -->
<g id="node7" class="node">
<title>_fc7725b504dfe81a0923659641500bf6</title>
<ellipse fill="grey" stroke="black" cx="456" cy="-90" rx="66.09" ry="18"/>
<text text-anchor="middle" x="456" y="-86.3" font-family="Times,serif" font-size="14.00">Steeped tea</text>
</g>
<!-- _63d2ed416115be6cf86c48e10dacf755&#45;&gt;_fc7725b504dfe81a0923659641500bf6 -->
<g id="edge5" class="edge">
<title>_63d2ed416115be6cf86c48e10dacf755&#45;&gt;_fc7725b504dfe81a0923659641500bf6</title>
<path fill="none" stroke="black" d="M309.68,-146.67C338.52,-135.69 378.46,-120.5 409.32,-108.76"/>
<polygon fill="black" stroke="black" points="410.9,-111.9 419,-105.08 408.41,-105.36 410.9,-111.9"/>
</g>
<!-- _e43f78155a7c2c42d6d65e1702ba0b0f -->
<g id="node9" class="node">
<title>_e43f78155a7c2c42d6d65e1702ba0b0f</title>
<polygon fill="palegreen" stroke="black" points="510,-36 402,-36 402,0 510,0 510,-36"/>
<text text-anchor="middle" x="456" y="-14.3" font-family="Times,serif" font-size="14.00">elapsed time</text>
</g>
<!-- _fc7725b504dfe81a0923659641500bf6&#45;&gt;_e43f78155a7c2c42d6d65e1702ba0b0f -->
<g id="edge8" class="edge">
<title>_fc7725b504dfe81a0923659641500bf6&#45;&gt;_e43f78155a7c2c42d6d65e1702ba0b0f</title>
<path fill="none" stroke="black" d="M456,-71.7C456,-63.98 456,-54.71 456,-46.11"/>
<polygon fill="black" stroke="black" points="459.5,-46.1 456,-36.1 452.5,-46.1 459.5,-46.1"/>
</g>
<!-- _6ac80c9b9d540f4035cde8e540cb0369 -->
<g id="node8" class="node">
<title>_6ac80c9b9d540f4035cde8e540cb0369</title>
<ellipse fill="grey" stroke="black" cx="178" cy="-234" rx="112.38" ry="18"/>
<text text-anchor="middle" x="178" y="-230.3" font-family="Times,serif" font-size="14.00">The perfect cup of tea</text>
</g>
<!-- _6ac80c9b9d540f4035cde8e540cb0369&#45;&gt;_4dfbb28a53db4770d8c9efa105b2d3ca -->
<g id="edge6" class="edge">
<title>_6ac80c9b9d540f4035cde8e540cb0369&#45;&gt;_4dfbb28a53db4770d8c9efa105b2d3ca</title>
<path fill="none" stroke="black" d="M161.78,-216.05C153.35,-207.24 142.9,-196.33 133.68,-186.69"/>
<polygon fill="black" stroke="black" points="136.05,-184.11 126.61,-179.31 130.99,-188.95 136.05,-184.11"/>
</g>
<!-- _6ac80c9b9d540f4035cde8e540cb0369&#45;&gt;_63d2ed416115be6cf86c48e10dacf755 -->
<g id="edge7" class="edge">
<title>_6ac80c9b9d540f4035cde8e540cb0369&#45;&gt;_63d2ed416115be6cf86c48e10dacf755</title>
<path fill="none" stroke="black" d="M200.75,-216.05C213.06,-206.89 228.41,-195.46 241.71,-185.56"/>
<polygon fill="black" stroke="black" points="244.17,-188.09 250.1,-179.31 239.99,-182.47 244.17,-188.09"/>
</g>
</g>
</svg>
