<?xml version="1.0" encoding="UTF-8" standalone="no"?>
<!DOCTYPE svg PUBLIC "-//W3C//DTD SVG 1.1//EN"
 "http://www.w3.org/Graphics/SVG/1.1/DTD/svg11.dtd">
<!-- Generated by graphviz version 2.43.0 (0)
 -->
<!-- Title: g Pages: 1 -->
<svg width="290pt" height="188pt"
 viewBox="0.00 0.00 290.00 188.00" xmlns="http://www.w3.org/2000/svg" xmlns:xlink="http://www.w3.org/1999/xlink">
<g id="graph0" class="graph" transform="scale(1 1) rotate(0) translate(4 184)">
<title>g</title>
<polygon fill="white" stroke="transparent" points="-4,4 -4,-184 286,-184 286,4 -4,4"/>
<!-- _4dfbb28a53db4770d8c9efa105b2d3ca -->
<g id="node1" class="node">
<title>_4dfbb28a53db4770d8c9efa105b2d3ca</title>
<ellipse fill="grey" stroke="black" cx="66" cy="-90" rx="47.39" ry="18"/>
<text text-anchor="middle" x="66" y="-86.3" font-family="Times,serif" font-size="14.00">A spoon</text>
</g>
<!-- _7f2d897b3949441090ec5b405dbeebb1 -->
<g id="node2" class="node">
<title>_7f2d897b3949441090ec5b405dbeebb1</title>
<polygon fill="palegreen" stroke="black" points="118,-36 0,-36 0,0 118,0 118,-36"/>
<text text-anchor="middle" x="59" y="-14.3" font-family="Times,serif" font-size="14.00">teatime/spoon</text>
</g>
<!-- _4dfbb28a53db4770d8c9efa105b2d3ca&#45;&gt;_7f2d897b3949441090ec5b405dbeebb1 -->
<g id="edge1" class="edge">
<title>_4dfbb28a53db4770d8c9efa105b2d3ca&#45;&gt;_7f2d897b3949441090ec5b405dbeebb1</title>
<path fill="none" stroke="black" d="M64.27,-71.7C63.5,-63.98 62.57,-54.71 61.71,-46.11"/>
<polygon fill="black" stroke="black" points="65.19,-45.71 60.71,-36.1 58.22,-46.4 65.19,-45.71"/>
</g>
<!-- _63d2ed416115be6cf86c48e10dacf755 -->
<g id="node3" class="node">
<title>_63d2ed416115be6cf86c48e10dacf755</title>
<ellipse fill="grey" stroke="black" cx="205" cy="-90" rx="69.59" ry="18"/>
<text text-anchor="middle" x="205" y="-86.3" font-family="Times,serif" font-size="14.00">Sugar in cup</text>
</g>
<!-- _e520f89ffb54953975127f0474fc8ac6 -->
<g id="node4" class="node">
<title>_e520f89ffb54953975127f0474fc8ac6</title>
<polygon fill="palegreen" stroke="black" points="282,-36 136,-36 136,0 282,0 282,-36"/>
<text text-anchor="middle" x="209" y="-14.3" font-family="Times,serif" font-size="14.00">teatime/cup/sugar</text>
</g>
<!-- _63d2ed416115be6cf86c48e10dacf755&#45;&gt;_e520f89ffb54953975127f0474fc8ac6 -->
<g id="edge2" class="edge">
<title>_63d2ed416115be6cf86c48e10dacf755&#45;&gt;_e520f89ffb54953975127f0474fc8ac6</title>
<path fill="none" stroke="black" d="M205.99,-71.7C206.43,-63.98 206.96,-54.71 207.45,-46.11"/>
<polygon fill="black" stroke="black" points="210.95,-46.29 208.02,-36.1 203.96,-45.89 210.95,-46.29"/>
</g>
<!-- _6ac80c9b9d540f4035cde8e540cb0369 -->
<g id="node5" class="node">
<title>_6ac80c9b9d540f4035cde8e540cb0369</title>
<ellipse fill="grey" stroke="black" cx="133" cy="-162" rx="112.38" ry="18"/>
<text text-anchor="middle" x="133" y="-158.3" font-family="Times,serif" font-size="14.00">The perfect cup of tea</text>
</g>
<!-- _6ac80c9b9d540f4035cde8e540cb0369&#45;&gt;_4dfbb28a53db4770d8c9efa105b2d3ca -->
<g id="edge3" class="edge">
<title>_6ac80c9b9d540f4035cde8e540cb0369&#45;&gt;_4dfbb28a53db4770d8c9efa105b2d3ca</title>
<path fill="none" stroke="black" d="M116.78,-144.05C108.35,-135.24 97.9,-124.33 88.68,-114.69"/>
<polygon fill="black" stroke="black" points="91.05,-112.11 81.61,-107.31 85.99,-116.95 91.05,-112.11"/>
</g>
<!-- _6ac80c9b9d540f4035cde8e540cb0369&#45;&gt;_63d2ed416115be6cf86c48e10dacf755 -->
<g id="edge4" class="edge">
<title>_6ac80c9b9d540f4035cde8e540cb0369&#45;&gt;_63d2ed416115be6cf86c48e10dacf755</title>
<path fill="none" stroke="black" d="M150.43,-144.05C159.45,-135.28 170.61,-124.43 180.49,-114.83"/>
<polygon fill="black" stroke="black" points="183,-117.27 187.73,-107.79 178.12,-112.25 183,-117.27"/>
</g>
</g>
</svg>
