<?xml version="1.0" encoding="UTF-8" standalone="no"?>
<!DOCTYPE svg PUBLIC "-//W3C//DTD SVG 1.1//EN"
 "http://www.w3.org/Graphics/SVG/1.1/DTD/svg11.dtd">
<!-- Generated by graphviz version 2.43.0 (0)
 -->
<!-- Title: g Pages: 1 -->
<svg width="757pt" height="476pt"
 viewBox="0.00 0.00 756.50 476.00" xmlns="http://www.w3.org/2000/svg" xmlns:xlink="http://www.w3.org/1999/xlink">
<g id="graph0" class="graph" transform="scale(1 1) rotate(0) translate(4 472)">
<title>g</title>
<polygon fill="white" stroke="transparent" points="-4,4 -4,-472 752.5,-472 752.5,4 -4,4"/>
<!-- _1bc88e99f3b24153cfb80abde9870319 -->
<g id="node1" class="node">
<title>_1bc88e99f3b24153cfb80abde9870319</title>
<ellipse fill="grey" stroke="black" cx="362" cy="-162" rx="75.29" ry="18"/>
<text text-anchor="middle" x="362" y="-158.3" font-family="Times,serif" font-size="14.00">Teabag in cup</text>
</g>
<!-- _5b1d149c29769d3624f4e34af2330bec -->
<g id="node2" class="node">
<title>_5b1d149c29769d3624f4e34af2330bec</title>
<ellipse fill="grey" stroke="black" cx="146" cy="-90" rx="36.29" ry="18"/>
<text text-anchor="middle" x="146" y="-86.3" font-family="Times,serif" font-size="14.00">A cup</text>
</g>
<!-- _1bc88e99f3b24153cfb80abde9870319&#45;&gt;_5b1d149c29769d3624f4e34af2330bec -->
<g id="edge1" class="edge">
<title>_1bc88e99f3b24153cfb80abde9870319&#45;&gt;_5b1d149c29769d3624f4e34af2330bec</title>
<path fill="none" stroke="black" d="M316.03,-147.58C281.47,-137.28 233.03,-122.44 191,-108 188.58,-107.17 186.1,-106.29 183.6,-105.4"/>
<polygon fill="black" stroke="black" points="184.58,-102.03 173.99,-101.87 182.17,-108.6 184.58,-102.03"/>
</g>
<!-- _a15fff0e94cf39f74a065b108fe52bbd -->
<g id="node3" class="node">
<title>_a15fff0e94cf39f74a065b108fe52bbd</title>
<ellipse fill="grey" stroke="black" cx="388" cy="-90" rx="187.67" ry="18"/>
<text text-anchor="middle" x="388" y="-86.3" font-family="Times,serif" font-size="14.00">Box of teabags teatime/box&#45;of&#45;teabags</text>
</g>
<!-- _1bc88e99f3b24153cfb80abde9870319&#45;&gt;_a15fff0e94cf39f74a065b108fe52bbd -->
<g id="edge2" class="edge">
<title>_1bc88e99f3b24153cfb80abde9870319&#45;&gt;_a15fff0e94cf39f74a065b108fe52bbd</title>
<path fill="none" stroke="black" d="M368.29,-144.05C371.22,-136.18 374.77,-126.62 378.05,-117.79"/>
<polygon fill="black" stroke="black" points="381.38,-118.87 381.58,-108.28 374.82,-116.43 381.38,-118.87"/>
</g>
<!-- _a73e34ca7f79d6d1fe3ec0d56b93c881 -->
<g id="node4" class="node">
<title>_a73e34ca7f79d6d1fe3ec0d56b93c881</title>
<polygon fill="palegreen" stroke="black" points="748.5,-108 593.5,-108 593.5,-72 748.5,-72 748.5,-108"/>
<text text-anchor="middle" x="671" y="-86.3" font-family="Times,serif" font-size="14.00">teatime/cup/teabag</text>
</g>
<!-- _1bc88e99f3b24153cfb80abde9870319&#45;&gt;_a73e34ca7f79d6d1fe3ec0d56b93c881 -->
<g id="edge3" class="edge">
<title>_1bc88e99f3b24153cfb80abde9870319&#45;&gt;_a73e34ca7f79d6d1fe3ec0d56b93c881</title>
<path fill="none" stroke="black" d="M414.77,-149.05C461.66,-138.42 531.07,-122.7 585.82,-110.3"/>
<polygon fill="black" stroke="black" points="586.89,-113.64 595.87,-108.02 585.34,-106.82 586.89,-113.64"/>
</g>
<!-- _f9810bce5bbcd6a4d4b834b75279ddce -->
<g id="node7" class="node">
<title>_f9810bce5bbcd6a4d4b834b75279ddce</title>
<polygon fill="palegreen" stroke="black" points="196.5,-36 95.5,-36 95.5,0 196.5,0 196.5,-36"/>
<text text-anchor="middle" x="146" y="-14.3" font-family="Times,serif" font-size="14.00">teatime/cup</text>
</g>
<!-- _5b1d149c29769d3624f4e34af2330bec&#45;&gt;_f9810bce5bbcd6a4d4b834b75279ddce -->
<g id="edge5" class="edge">
<title>_5b1d149c29769d3624f4e34af2330bec&#45;&gt;_f9810bce5bbcd6a4d4b834b75279ddce</title>
<path fill="none" stroke="black" d="M146,-71.7C146,-63.98 146,-54.71 146,-46.11"/>
<polygon fill="black" stroke="black" points="149.5,-46.1 146,-36.1 142.5,-46.1 149.5,-46.1"/>
</g>
<!-- _9f642df358ddbee291d14a457d6c628d -->
<g id="node12" class="node">
<title>_9f642df358ddbee291d14a457d6c628d</title>
<polygon fill="palegreen" stroke="black" points="477.5,-36 298.5,-36 298.5,0 477.5,0 477.5,-36"/>
<text text-anchor="middle" x="388" y="-14.3" font-family="Times,serif" font-size="14.00">teatime/box&#45;of&#45;teabags</text>
</g>
<!-- _a15fff0e94cf39f74a065b108fe52bbd&#45;&gt;_9f642df358ddbee291d14a457d6c628d -->
<g id="edge11" class="edge">
<title>_a15fff0e94cf39f74a065b108fe52bbd&#45;&gt;_9f642df358ddbee291d14a457d6c628d</title>
<path fill="none" stroke="black" d="M388,-71.7C388,-63.98 388,-54.71 388,-46.11"/>
<polygon fill="black" stroke="black" points="391.5,-46.1 388,-36.1 384.5,-46.1 391.5,-46.1"/>
</g>
<!-- _4dfbb28a53db4770d8c9efa105b2d3ca -->
<g id="node5" class="node">
<title>_4dfbb28a53db4770d8c9efa105b2d3ca</title>
<ellipse fill="grey" stroke="black" cx="85" cy="-378" rx="47.39" ry="18"/>
<text text-anchor="middle" x="85" y="-374.3" font-family="Times,serif" font-size="14.00">A spoon</text>
</g>
<!-- _7f2d897b3949441090ec5b405dbeebb1 -->
<g id="node6" class="node">
<title>_7f2d897b3949441090ec5b405dbeebb1</title>
<polygon fill="palegreen" stroke="black" points="118,-324 0,-324 0,-288 118,-288 118,-324"/>
<text text-anchor="middle" x="59" y="-302.3" font-family="Times,serif" font-size="14.00">teatime/spoon</text>
</g>
<!-- _4dfbb28a53db4770d8c9efa105b2d3ca&#45;&gt;_7f2d897b3949441090ec5b405dbeebb1 -->
<g id="edge4" class="edge">
<title>_4dfbb28a53db4770d8c9efa105b2d3ca&#45;&gt;_7f2d897b3949441090ec5b405dbeebb1</title>
<path fill="none" stroke="black" d="M78.71,-360.05C75.78,-352.18 72.23,-342.62 68.95,-333.79"/>
<polygon fill="black" stroke="black" points="72.18,-332.43 65.42,-324.28 65.62,-334.87 72.18,-332.43"/>
</g>
<!-- _63d2ed416115be6cf86c48e10dacf755 -->
<g id="node8" class="node">
<title>_63d2ed416115be6cf86c48e10dacf755</title>
<ellipse fill="grey" stroke="black" cx="233" cy="-378" rx="69.59" ry="18"/>
<text text-anchor="middle" x="233" y="-374.3" font-family="Times,serif" font-size="14.00">Sugar in cup</text>
</g>
<!-- _63d2ed416115be6cf86c48e10dacf755&#45;&gt;_5b1d149c29769d3624f4e34af2330bec -->
<g id="edge6" class="edge">
<title>_63d2ed416115be6cf86c48e10dacf755&#45;&gt;_5b1d149c29769d3624f4e34af2330bec</title>
<path fill="none" stroke="black" d="M203.39,-361.62C189.27,-352.65 173.6,-339.94 165,-324 128.94,-257.21 135.43,-163.67 141.54,-118.1"/>
<polygon fill="black" stroke="black" points="145.02,-118.5 142.98,-108.1 138.09,-117.5 145.02,-118.5"/>
</g>
<!-- _e520f89ffb54953975127f0474fc8ac6 -->
<g id="node9" class="node">
<title>_e520f89ffb54953975127f0474fc8ac6</title>
<polygon fill="orange" stroke="black" points="320,-324 174,-324 174,-288 320,-288 320,-324"/>
<text text-anchor="middle" x="247" y="-302.3" font-family="Times,serif" font-size="14.00">teatime/cup/sugar</text>
</g>
<!-- _63d2ed416115be6cf86c48e10dacf755&#45;&gt;_e520f89ffb54953975127f0474fc8ac6 -->
<g id="edge7" class="edge">
<title>_63d2ed416115be6cf86c48e10dacf755&#45;&gt;_e520f89ffb54953975127f0474fc8ac6</title>
<path fill="none" stroke="black" d="M236.46,-359.7C238,-351.98 239.86,-342.71 241.58,-334.11"/>
<polygon fill="black" stroke="black" points="245.05,-334.6 243.58,-324.1 238.19,-333.22 245.05,-334.6"/>
</g>
<!-- _fc7725b504dfe81a0923659641500bf6 -->
<g id="node10" class="node">
<title>_fc7725b504dfe81a0923659641500bf6</title>
<ellipse fill="grey" stroke="black" cx="404" cy="-306" rx="66.09" ry="18"/>
<text text-anchor="middle" x="404" y="-302.3" font-family="Times,serif" font-size="14.00">Steeped tea</text>
</g>
<!-- _63d2ed416115be6cf86c48e10dacf755&#45;&gt;_fc7725b504dfe81a0923659641500bf6 -->
<g id="edge8" class="edge">
<title>_63d2ed416115be6cf86c48e10dacf755&#45;&gt;_fc7725b504dfe81a0923659641500bf6</title>
<path fill="none" stroke="black" d="M268.43,-362.5C294.89,-351.67 331.22,-336.79 359.61,-325.17"/>
<polygon fill="black" stroke="black" points="360.98,-328.39 368.91,-321.37 358.33,-321.91 360.98,-328.39"/>
</g>
<!-- _e2ae5a6ebee14aca44ab9445c4149406 -->
<g id="node13" class="node">
<title>_e2ae5a6ebee14aca44ab9445c4149406</title>
<ellipse fill="grey" stroke="black" cx="362" cy="-234" rx="104.78" ry="18"/>
<text text-anchor="middle" x="362" y="-230.3" font-family="Times,serif" font-size="14.00">Boiling water in cup</text>
</g>
<!-- _fc7725b504dfe81a0923659641500bf6&#45;&gt;_e2ae5a6ebee14aca44ab9445c4149406 -->
<g id="edge15" class="edge">
<title>_fc7725b504dfe81a0923659641500bf6&#45;&gt;_e2ae5a6ebee14aca44ab9445c4149406</title>
<path fill="none" stroke="black" d="M393.83,-288.05C388.95,-279.92 383,-270 377.57,-260.94"/>
<polygon fill="black" stroke="black" points="380.51,-259.05 372.37,-252.28 374.51,-262.65 380.51,-259.05"/>
</g>
<!-- _e43f78155a7c2c42d6d65e1702ba0b0f -->
<g id="node15" class="node">
<title>_e43f78155a7c2c42d6d65e1702ba0b0f</title>
<polygon fill="orange" stroke="black" points="593,-252 485,-252 485,-216 593,-216 593,-252"/>
<text text-anchor="middle" x="539" y="-230.3" font-family="Times,serif" font-size="14.00">elapsed time</text>
</g>
<!-- _fc7725b504dfe81a0923659641500bf6&#45;&gt;_e43f78155a7c2c42d6d65e1702ba0b0f -->
<g id="edge16" class="edge">
<title>_fc7725b504dfe81a0923659641500bf6&#45;&gt;_e43f78155a7c2c42d6d65e1702ba0b0f</title>
<path fill="none" stroke="black" d="M433.29,-289.81C451.94,-280.14 476.38,-267.47 497.06,-256.74"/>
<polygon fill="black" stroke="black" points="498.7,-259.84 505.97,-252.13 495.48,-253.62 498.7,-259.84"/>
</g>
<!-- _6ac80c9b9d540f4035cde8e540cb0369 -->
<g id="node11" class="node">
<title>_6ac80c9b9d540f4035cde8e540cb0369</title>
<ellipse fill="grey" stroke="black" cx="152" cy="-450" rx="112.38" ry="18"/>
<text text-anchor="middle" x="152" y="-446.3" font-family="Times,serif" font-size="14.00">The perfect cup of tea</text>
</g>
<!-- _6ac80c9b9d540f4035cde8e540cb0369&#45;&gt;_4dfbb28a53db4770d8c9efa105b2d3ca -->
<g id="edge9" class="edge">
<title>_6ac80c9b9d540f4035cde8e540cb0369&#45;&gt;_4dfbb28a53db4770d8c9efa105b2d3ca</title>
<path fill="none" stroke="black" d="M135.78,-432.05C127.35,-423.24 116.9,-412.33 107.68,-402.69"/>
<polygon fill="black" stroke="black" points="110.05,-400.11 100.61,-395.31 104.99,-404.95 110.05,-400.11"/>
</g>
<!-- _6ac80c9b9d540f4035cde8e540cb0369&#45;&gt;_63d2ed416115be6cf86c48e10dacf755 -->
<g id="edge10" class="edge">
<title>_6ac80c9b9d540f4035cde8e540cb0369&#45;&gt;_63d2ed416115be6cf86c48e10dacf755</title>
<path fill="none" stroke="black" d="M171.61,-432.05C181.93,-423.13 194.75,-412.06 206,-402.34"/>
<polygon fill="black" stroke="black" points="208.57,-404.73 213.85,-395.55 204,-399.44 208.57,-404.73"/>
</g>
<!-- _e2ae5a6ebee14aca44ab9445c4149406&#45;&gt;_1bc88e99f3b24153cfb80abde9870319 -->
<g id="edge12" class="edge">
<title>_e2ae5a6ebee14aca44ab9445c4149406&#45;&gt;_1bc88e99f3b24153cfb80abde9870319</title>
<path fill="none" stroke="black" d="M362,-215.7C362,-207.98 362,-198.71 362,-190.11"/>
<polygon fill="black" stroke="black" points="365.5,-190.1 362,-180.1 358.5,-190.1 365.5,-190.1"/>
</g>
<!-- _e2ae5a6ebee14aca44ab9445c4149406&#45;&gt;_5b1d149c29769d3624f4e34af2330bec -->
<g id="edge13" class="edge">
<title>_e2ae5a6ebee14aca44ab9445c4149406&#45;&gt;_5b1d149c29769d3624f4e34af2330bec</title>
<path fill="none" stroke="black" d="M335.39,-216.5C318.8,-206.14 297.06,-192.44 278,-180 242.23,-156.66 201.54,-129.07 174.91,-110.86"/>
<polygon fill="black" stroke="black" points="176.68,-107.83 166.45,-105.07 172.72,-113.61 176.68,-107.83"/>
</g>
<!-- _f1b07b232490520bf0d7034d936250d9 -->
<g id="node14" class="node">
<title>_f1b07b232490520bf0d7034d936250d9</title>
<polygon fill="palegreen" stroke="black" points="602.5,-180 455.5,-180 455.5,-144 602.5,-144 602.5,-180"/>
<text text-anchor="middle" x="529" y="-158.3" font-family="Times,serif" font-size="14.00">teatime/cup/water</text>
</g>
<!-- _e2ae5a6ebee14aca44ab9445c4149406&#45;&gt;_f1b07b232490520bf0d7034d936250d9 -->
<g id="edge14" class="edge">
<title>_e2ae5a6ebee14aca44ab9445c4149406&#45;&gt;_f1b07b232490520bf0d7034d936250d9</title>
<path fill="none" stroke="black" d="M399.89,-217.12C423.28,-207.32 453.54,-194.63 478.89,-184.01"/>
<polygon fill="black" stroke="black" points="480.47,-187.14 488.34,-180.04 477.76,-180.68 480.47,-187.14"/>
</g>
</g>
</svg>
