<?xml version="1.0" encoding="UTF-8" standalone="no"?>
<!DOCTYPE svg PUBLIC "-//W3C//DTD SVG 1.1//EN"
 "http://www.w3.org/Graphics/SVG/1.1/DTD/svg11.dtd">
<!-- Generated by graphviz version 2.43.0 (0)
 -->
<!-- Title: g Pages: 1 -->
<svg width="757pt" height="476pt"
 viewBox="0.00 0.00 756.50 476.00" xmlns="http://www.w3.org/2000/svg" xmlns:xlink="http://www.w3.org/1999/xlink">
<g id="graph0" class="graph" transform="scale(1 1) rotate(0) translate(4 472)">
<title>g</title>
<polygon fill="white" stroke="transparent" points="-4,4 -4,-472 752.5,-472 752.5,4 -4,4"/>
<!-- _1bc88e99f3b24153cfb80abde9870319 -->
<g id="node1" class="node">
<title>_1bc88e99f3b24153cfb80abde9870319</title>
<ellipse fill="grey" stroke="black" cx="287" cy="-162" rx="75.29" ry="18"/>
<text text-anchor="middle" x="287" y="-158.3" font-family="Times,serif" font-size="14.00">Teabag in cup</text>
</g>
<!-- _5b1d149c29769d3624f4e34af2330bec -->
<g id="node2" class="node">
<title>_5b1d149c29769d3624f4e34af2330bec</title>
<ellipse fill="grey" stroke="black" cx="146" cy="-90" rx="36.29" ry="18"/>
<text text-anchor="middle" x="146" y="-86.3" font-family="Times,serif" font-size="14.00">A cup</text>
</g>
<!-- _1bc88e99f3b24153cfb80abde9870319&#45;&gt;_5b1d149c29769d3624f4e34af2330bec -->
<g id="edge1" class="edge">
<title>_1bc88e99f3b24153cfb80abde9870319&#45;&gt;_5b1d149c29769d3624f4e34af2330bec</title>
<path fill="none" stroke="black" d="M255.71,-145.46C233.32,-134.35 203.19,-119.39 180.17,-107.96"/>
<polygon fill="black" stroke="black" points="181.61,-104.77 171.1,-103.46 178.5,-111.04 181.61,-104.77"/>
</g>
<!-- _a15fff0e94cf39f74a065b108fe52bbd -->
<g id="node3" class="node">
<title>_a15fff0e94cf39f74a065b108fe52bbd</title>
<ellipse fill="grey" stroke="black" cx="388" cy="-90" rx="187.67" ry="18"/>
<text text-anchor="middle" x="388" y="-86.3" font-family="Times,serif" font-size="14.00">Box of teabags teatime/box&#45;of&#45;teabags</text>
</g>
<!-- _1bc88e99f3b24153cfb80abde9870319&#45;&gt;_a15fff0e94cf39f74a065b108fe52bbd -->
<g id="edge2" class="edge">
<title>_1bc88e99f3b24153cfb80abde9870319&#45;&gt;_a15fff0e94cf39f74a065b108fe52bbd</title>
<path fill="none" stroke="black" d="M310.43,-144.76C323.77,-135.51 340.7,-123.78 355.34,-113.64"/>
<polygon fill="black" stroke="black" points="357.42,-116.45 363.65,-107.88 353.43,-110.7 357.42,-116.45"/>
</g>
<!-- _a73e34ca7f79d6d1fe3ec0d56b93c881 -->
<g id="node4" class="node">
<title>_a73e34ca7f79d6d1fe3ec0d56b93c881</title>
<polygon fill="orange" stroke="black" points="748.5,-108 593.5,-108 593.5,-72 748.5,-72 748.5,-108"/>
<text text-anchor="middle" x="671" y="-86.3" font-family="Times,serif" font-size="14.00">teatime/cup/teabag</text>
</g>
<!-- _1bc88e99f3b24153cfb80abde9870319&#45;&gt;_a73e34ca7f79d6d1fe3ec0d56b93c881 -->
<g id="edge3" class="edge">
<title>_1bc88e99f3b24153cfb80abde9870319&#45;&gt;_a73e34ca7f79d6d1fe3ec0d56b93c881</title>
<path fill="none" stroke="black" d="M342.28,-149.69C352.17,-147.74 362.38,-145.77 372,-144 463.28,-127.16 488.88,-125.41 583.23,-108.3"/>
<polygon fill="black" stroke="black" points="583.99,-111.72 593.2,-106.48 582.74,-104.83 583.99,-111.72"/>
</g>
<!-- _f9810bce5bbcd6a4d4b834b75279ddce -->
<g id="node7" class="node">
<title>_f9810bce5bbcd6a4d4b834b75279ddce</title>
<polygon fill="orange" stroke="black" points="196.5,-36 95.5,-36 95.5,0 196.5,0 196.5,-36"/>
<text text-anchor="middle" x="146" y="-14.3" font-family="Times,serif" font-size="14.00">teatime/cup</text>
</g>
<!-- _5b1d149c29769d3624f4e34af2330bec&#45;&gt;_f9810bce5bbcd6a4d4b834b75279ddce -->
<g id="edge5" class="edge">
<title>_5b1d149c29769d3624f4e34af2330bec&#45;&gt;_f9810bce5bbcd6a4d4b834b75279ddce</title>
<path fill="none" stroke="black" d="M146,-71.7C146,-63.98 146,-54.71 146,-46.11"/>
<polygon fill="black" stroke="black" points="149.5,-46.1 146,-36.1 142.5,-46.1 149.5,-46.1"/>
</g>
<!-- _9f642df358ddbee291d14a457d6c628d -->
<g id="node12" class="node">
<title>_9f642df358ddbee291d14a457d6c628d</title>
<polygon fill="orange" stroke="black" points="477.5,-36 298.5,-36 298.5,0 477.5,0 477.5,-36"/>
<text text-anchor="middle" x="388" y="-14.3" font-family="Times,serif" font-size="14.00">teatime/box&#45;of&#45;teabags</text>
</g>
<!-- _a15fff0e94cf39f74a065b108fe52bbd&#45;&gt;_9f642df358ddbee291d14a457d6c628d -->
<g id="edge13" class="edge">
<title>_a15fff0e94cf39f74a065b108fe52bbd&#45;&gt;_9f642df358ddbee291d14a457d6c628d</title>
<path fill="none" stroke="black" d="M388,-71.7C388,-63.98 388,-54.71 388,-46.11"/>
<polygon fill="black" stroke="black" points="391.5,-46.1 388,-36.1 384.5,-46.1 391.5,-46.1"/>
</g>
<!-- _4dfbb28a53db4770d8c9efa105b2d3ca -->
<g id="node5" class="node">
<title>_4dfbb28a53db4770d8c9efa105b2d3ca</title>
<ellipse fill="grey" stroke="black" cx="63" cy="-378" rx="47.39" ry="18"/>
<text text-anchor="middle" x="63" y="-374.3" font-family="Times,serif" font-size="14.00">A spoon</text>
</g>
<!-- _7f2d897b3949441090ec5b405dbeebb1 -->
<g id="node6" class="node">
<title>_7f2d897b3949441090ec5b405dbeebb1</title>
<polygon fill="orange" stroke="black" points="118,-324 0,-324 0,-288 118,-288 118,-324"/>
<text text-anchor="middle" x="59" y="-302.3" font-family="Times,serif" font-size="14.00">teatime/spoon</text>
</g>
<!-- _4dfbb28a53db4770d8c9efa105b2d3ca&#45;&gt;_7f2d897b3949441090ec5b405dbeebb1 -->
<g id="edge4" class="edge">
<title>_4dfbb28a53db4770d8c9efa105b2d3ca&#45;&gt;_7f2d897b3949441090ec5b405dbeebb1</title>
<path fill="none" stroke="black" d="M62.01,-359.7C61.57,-351.98 61.04,-342.71 60.55,-334.11"/>
<polygon fill="black" stroke="black" points="64.04,-333.89 59.98,-324.1 57.05,-334.29 64.04,-333.89"/>
</g>
<!-- _63d2ed416115be6cf86c48e10dacf755 -->
<g id="node8" class="node">
<title>_63d2ed416115be6cf86c48e10dacf755</title>
<ellipse fill="grey" stroke="black" cx="239" cy="-378" rx="69.59" ry="18"/>
<text text-anchor="middle" x="239" y="-374.3" font-family="Times,serif" font-size="14.00">Sugar in cup</text>
</g>
<!-- _63d2ed416115be6cf86c48e10dacf755&#45;&gt;_5b1d149c29769d3624f4e34af2330bec -->
<g id="edge6" class="edge">
<title>_63d2ed416115be6cf86c48e10dacf755&#45;&gt;_5b1d149c29769d3624f4e34af2330bec</title>
<path fill="none" stroke="black" d="M206.45,-361.99C191.19,-353.18 174.35,-340.5 165,-324 127.6,-257.96 134.7,-164.07 141.25,-118.26"/>
<polygon fill="black" stroke="black" points="144.73,-118.62 142.79,-108.21 137.81,-117.56 144.73,-118.62"/>
</g>
<!-- _e520f89ffb54953975127f0474fc8ac6 -->
<g id="node9" class="node">
<title>_e520f89ffb54953975127f0474fc8ac6</title>
<polygon fill="orange" stroke="black" points="470,-324 324,-324 324,-288 470,-288 470,-324"/>
<text text-anchor="middle" x="397" y="-302.3" font-family="Times,serif" font-size="14.00">teatime/cup/sugar</text>
</g>
<!-- _63d2ed416115be6cf86c48e10dacf755&#45;&gt;_e520f89ffb54953975127f0474fc8ac6 -->
<g id="edge7" class="edge">
<title>_63d2ed416115be6cf86c48e10dacf755&#45;&gt;_e520f89ffb54953975127f0474fc8ac6</title>
<path fill="none" stroke="black" d="M272.51,-362.15C294.84,-352.26 324.52,-339.11 349.31,-328.13"/>
<polygon fill="black" stroke="black" points="350.81,-331.29 358.54,-324.04 347.98,-324.89 350.81,-331.29"/>
</g>
<!-- _fc7725b504dfe81a0923659641500bf6 -->
<g id="node10" class="node">
<title>_fc7725b504dfe81a0923659641500bf6</title>
<ellipse fill="grey" stroke="black" cx="240" cy="-306" rx="66.09" ry="18"/>
<text text-anchor="middle" x="240" y="-302.3" font-family="Times,serif" font-size="14.00">Steeped tea</text>
</g>
<!-- _63d2ed416115be6cf86c48e10dacf755&#45;&gt;_fc7725b504dfe81a0923659641500bf6 -->
<g id="edge8" class="edge">
<title>_63d2ed416115be6cf86c48e10dacf755&#45;&gt;_fc7725b504dfe81a0923659641500bf6</title>
<path fill="none" stroke="black" d="M239.25,-359.7C239.36,-351.98 239.49,-342.71 239.61,-334.11"/>
<polygon fill="black" stroke="black" points="243.11,-334.15 239.76,-324.1 236.11,-334.05 243.11,-334.15"/>
</g>
<!-- _e2ae5a6ebee14aca44ab9445c4149406 -->
<g id="node13" class="node">
<title>_e2ae5a6ebee14aca44ab9445c4149406</title>
<ellipse fill="grey" stroke="black" cx="279" cy="-234" rx="104.78" ry="18"/>
<text text-anchor="middle" x="279" y="-230.3" font-family="Times,serif" font-size="14.00">Boiling water in cup</text>
</g>
<!-- _fc7725b504dfe81a0923659641500bf6&#45;&gt;_e2ae5a6ebee14aca44ab9445c4149406 -->
<g id="edge17" class="edge">
<title>_fc7725b504dfe81a0923659641500bf6&#45;&gt;_e2ae5a6ebee14aca44ab9445c4149406</title>
<path fill="none" stroke="black" d="M249.44,-288.05C253.92,-280.01 259.39,-270.2 264.39,-261.23"/>
<polygon fill="black" stroke="black" points="267.57,-262.71 269.38,-252.28 261.45,-259.31 267.57,-262.71"/>
</g>
<!-- _e43f78155a7c2c42d6d65e1702ba0b0f -->
<g id="node15" class="node">
<title>_e43f78155a7c2c42d6d65e1702ba0b0f</title>
<polygon fill="orange" stroke="black" points="510,-252 402,-252 402,-216 510,-216 510,-252"/>
<text text-anchor="middle" x="456" y="-230.3" font-family="Times,serif" font-size="14.00">elapsed time</text>
</g>
<!-- _fc7725b504dfe81a0923659641500bf6&#45;&gt;_e43f78155a7c2c42d6d65e1702ba0b0f -->
<g id="edge18" class="edge">
<title>_fc7725b504dfe81a0923659641500bf6&#45;&gt;_e43f78155a7c2c42d6d65e1702ba0b0f</title>
<path fill="none" stroke="black" d="M280.88,-291.75C312.77,-281.42 357.58,-266.89 393.9,-255.13"/>
<polygon fill="black" stroke="black" points="394.98,-258.45 403.41,-252.04 392.82,-251.8 394.98,-258.45"/>
</g>
<!-- _6ac80c9b9d540f4035cde8e540cb0369 -->
<g id="node11" class="node">
<title>_6ac80c9b9d540f4035cde8e540cb0369</title>
<ellipse fill="grey" stroke="black" cx="189" cy="-450" rx="112.38" ry="18"/>
<text text-anchor="middle" x="189" y="-446.3" font-family="Times,serif" font-size="14.00">The perfect cup of tea</text>
</g>
<!-- _6ac80c9b9d540f4035cde8e540cb0369&#45;&gt;_4dfbb28a53db4770d8c9efa105b2d3ca -->
<g id="edge9" class="edge">
<title>_6ac80c9b9d540f4035cde8e540cb0369&#45;&gt;_4dfbb28a53db4770d8c9efa105b2d3ca</title>
<path fill="none" stroke="black" d="M159.46,-432.59C140.87,-422.26 116.81,-408.9 97.37,-398.09"/>
<polygon fill="black" stroke="black" points="98.96,-394.98 88.52,-393.18 95.56,-401.09 98.96,-394.98"/>
</g>
<!-- _6ac80c9b9d540f4035cde8e540cb0369&#45;&gt;_7f2d897b3949441090ec5b405dbeebb1 -->
<g id="edge11" class="edge">
<title>_6ac80c9b9d540f4035cde8e540cb0369&#45;&gt;_7f2d897b3949441090ec5b405dbeebb1</title>
<path fill="none" stroke="black" d="M176.95,-431.86C163.64,-413.37 141.14,-383.44 119,-360 109.44,-349.87 98.17,-339.55 87.99,-330.74"/>
<polygon fill="black" stroke="black" points="90,-327.86 80.12,-324.04 85.46,-333.19 90,-327.86"/>
</g>
<!-- _6ac80c9b9d540f4035cde8e540cb0369&#45;&gt;_63d2ed416115be6cf86c48e10dacf755 -->
<g id="edge10" class="edge">
<title>_6ac80c9b9d540f4035cde8e540cb0369&#45;&gt;_63d2ed416115be6cf86c48e10dacf755</title>
<path fill="none" stroke="black" d="M201.1,-432.05C207.12,-423.63 214.51,-413.28 221.17,-403.97"/>
<polygon fill="black" stroke="black" points="224.04,-405.96 227.01,-395.79 218.35,-401.89 224.04,-405.96"/>
</g>
<!-- _6ac80c9b9d540f4035cde8e540cb0369&#45;&gt;_e520f89ffb54953975127f0474fc8ac6 -->
<g id="edge12" class="edge">
<title>_6ac80c9b9d540f4035cde8e540cb0369&#45;&gt;_e520f89ffb54953975127f0474fc8ac6</title>
<path fill="none" stroke="black" d="M240.42,-433.93C265.23,-425.2 294.6,-412.61 318,-396 342.65,-378.5 364.94,-351.92 379.5,-332.37"/>
<polygon fill="black" stroke="black" points="382.39,-334.34 385.45,-324.2 376.73,-330.22 382.39,-334.34"/>
</g>
<!-- _e2ae5a6ebee14aca44ab9445c4149406&#45;&gt;_1bc88e99f3b24153cfb80abde9870319 -->
<g id="edge14" class="edge">
<title>_e2ae5a6ebee14aca44ab9445c4149406&#45;&gt;_1bc88e99f3b24153cfb80abde9870319</title>
<path fill="none" stroke="black" d="M280.98,-215.7C281.86,-207.98 282.92,-198.71 283.9,-190.11"/>
<polygon fill="black" stroke="black" points="287.39,-190.44 285.05,-180.1 280.43,-189.64 287.39,-190.44"/>
</g>
<!-- _e2ae5a6ebee14aca44ab9445c4149406&#45;&gt;_5b1d149c29769d3624f4e34af2330bec -->
<g id="edge15" class="edge">
<title>_e2ae5a6ebee14aca44ab9445c4149406&#45;&gt;_5b1d149c29769d3624f4e34af2330bec</title>
<path fill="none" stroke="black" d="M249.88,-216.5C234.79,-207.06 216.71,-194.26 203,-180 184.83,-161.1 169.19,-135.58 158.91,-116.71"/>
<polygon fill="black" stroke="black" points="161.95,-114.98 154.18,-107.78 155.77,-118.26 161.95,-114.98"/>
</g>
<!-- _f1b07b232490520bf0d7034d936250d9 -->
<g id="node14" class="node">
<title>_f1b07b232490520bf0d7034d936250d9</title>
<polygon fill="orange" stroke="black" points="527.5,-180 380.5,-180 380.5,-144 527.5,-144 527.5,-180"/>
<text text-anchor="middle" x="454" y="-158.3" font-family="Times,serif" font-size="14.00">teatime/cup/water</text>
</g>
<!-- _e2ae5a6ebee14aca44ab9445c4149406&#45;&gt;_f1b07b232490520bf0d7034d936250d9 -->
<g id="edge16" class="edge">
<title>_e2ae5a6ebee14aca44ab9445c4149406&#45;&gt;_f1b07b232490520bf0d7034d936250d9</title>
<path fill="none" stroke="black" d="M318.27,-217.29C342.95,-207.42 375.08,-194.57 401.88,-183.85"/>
<polygon fill="black" stroke="black" points="403.51,-186.97 411.49,-180 400.91,-180.47 403.51,-186.97"/>
</g>
</g>
</svg>
