<?xml version="1.0" encoding="UTF-8" standalone="no"?>
<!DOCTYPE svg PUBLIC "-//W3C//DTD SVG 1.1//EN"
 "http://www.w3.org/Graphics/SVG/1.1/DTD/svg11.dtd">
<!-- Generated by graphviz version 2.43.0 (0)
 -->
<!-- Title: g Pages: 1 -->
<svg width="181pt" height="332pt"
 viewBox="0.00 0.00 181.00 332.00" xmlns="http://www.w3.org/2000/svg" xmlns:xlink="http://www.w3.org/1999/xlink">
<g id="graph0" class="graph" transform="scale(1 1) rotate(0) translate(4 328)">
<title>g</title>
<polygon fill="white" stroke="transparent" points="-4,4 -4,-328 177,-328 177,4 -4,4"/>
<!-- _2d3b417e56df029e08eb681d956b698327a2c942ef17ed1211429a5b350fa120 -->
<g id="node1" class="node">
<title>_2d3b417e56df029e08eb681d956b698327a2c942ef17ed1211429a5b350fa120</title>
<polygon fill="orange" stroke="black" points="140,-252 33,-252 33,-216 140,-216 140,-252"/>
<text text-anchor="middle" x="86.5" y="-230.3" font-family="Times,serif" font-size="14.00">Sugar in cup</text>
</g>
<!-- _c6cdaf95c19c62ffdd301ccab7506438fdec5af952aeeb06004fcd4c6ee44ad6 -->
<g id="node2" class="node">
<title>_c6cdaf95c19c62ffdd301ccab7506438fdec5af952aeeb06004fcd4c6ee44ad6</title>
<polygon fill="orange" stroke="black" points="137.5,-180 35.5,-180 35.5,-144 137.5,-144 137.5,-180"/>
<text text-anchor="middle" x="86.5" y="-158.3" font-family="Times,serif" font-size="14.00">Steeped tea</text>
</g>
<!-- _2d3b417e56df029e08eb681d956b698327a2c942ef17ed1211429a5b350fa120&#45;&gt;_c6cdaf95c19c62ffdd301ccab7506438fdec5af952aeeb06004fcd4c6ee44ad6 -->
<g id="edge1" class="edge">
<title>_2d3b417e56df029e08eb681d956b698327a2c942ef17ed1211429a5b350fa120&#45;&gt;_c6cdaf95c19c62ffdd301ccab7506438fdec5af952aeeb06004fcd4c6ee44ad6</title>
<path fill="none" stroke="black" d="M86.5,-215.7C86.5,-207.98 86.5,-198.71 86.5,-190.11"/>
<polygon fill="black" stroke="black" points="90,-190.1 86.5,-180.1 83,-190.1 90,-190.1"/>
</g>
<!-- _6e5e83a1d2910e57fe4856d6682a1d543695e6454c2d3683e57b42d713e3f8c7 -->
<g id="node5" class="node">
<title>_6e5e83a1d2910e57fe4856d6682a1d543695e6454c2d3683e57b42d713e3f8c7</title>
<polygon fill="palegreen" stroke="black" points="167,-108 6,-108 6,-72 167,-72 167,-108"/>
<text text-anchor="middle" x="86.5" y="-86.3" font-family="Times,serif" font-size="14.00">Boiling water in cup</text>
</g>
<!-- _c6cdaf95c19c62ffdd301ccab7506438fdec5af952aeeb06004fcd4c6ee44ad6&#45;&gt;_6e5e83a1d2910e57fe4856d6682a1d543695e6454c2d3683e57b42d713e3f8c7 -->
<g id="edge4" class="edge">
<title>_c6cdaf95c19c62ffdd301ccab7506438fdec5af952aeeb06004fcd4c6ee44ad6&#45;&gt;_6e5e83a1d2910e57fe4856d6682a1d543695e6454c2d3683e57b42d713e3f8c7</title>
<path fill="none" stroke="black" d="M86.5,-143.7C86.5,-135.98 86.5,-126.71 86.5,-118.11"/>
<polygon fill="black" stroke="black" points="90,-118.1 86.5,-108.1 83,-118.1 90,-118.1"/>
</g>
<!-- _3ea409444ecd332a3620cefe191814941399f36443342368b8b0a78c57162d62 -->
<g id="node3" class="node">
<title>_3ea409444ecd332a3620cefe191814941399f36443342368b8b0a78c57162d62</title>
<polygon fill="palegreen" stroke="black" points="146.5,-36 26.5,-36 26.5,0 146.5,0 146.5,-36"/>
<text text-anchor="middle" x="86.5" y="-14.3" font-family="Times,serif" font-size="14.00">Tea bag in cup</text>
</g>
<!-- _53038717935d18bd075bac751e2a415fb621ff0a7119467b07f6523f0c4b4e36 -->
<g id="node4" class="node">
<title>_53038717935d18bd075bac751e2a415fb621ff0a7119467b07f6523f0c4b4e36</title>
<polygon fill="orange" stroke="black" points="173,-324 0,-324 0,-288 173,-288 173,-324"/>
<text text-anchor="middle" x="86.5" y="-302.3" font-family="Times,serif" font-size="14.00">The perfect cup of tea</text>
</g>
<!-- _53038717935d18bd075bac751e2a415fb621ff0a7119467b07f6523f0c4b4e36&#45;&gt;_2d3b417e56df029e08eb681d956b698327a2c942ef17ed1211429a5b350fa120 -->
<g id="edge2" class="edge">
<title>_53038717935d18bd075bac751e2a415fb621ff0a7119467b07f6523f0c4b4e36&#45;&gt;_2d3b417e56df029e08eb681d956b698327a2c942ef17ed1211429a5b350fa120</title>
<path fill="none" stroke="black" d="M86.5,-287.7C86.5,-279.98 86.5,-270.71 86.5,-262.11"/>
<polygon fill="black" stroke="black" points="90,-262.1 86.5,-252.1 83,-262.1 90,-262.1"/>
</g>
<!-- _6e5e83a1d2910e57fe4856d6682a1d543695e6454c2d3683e57b42d713e3f8c7&#45;&gt;_3ea409444ecd332a3620cefe191814941399f36443342368b8b0a78c57162d62 -->
<g id="edge3" class="edge">
<title>_6e5e83a1d2910e57fe4856d6682a1d543695e6454c2d3683e57b42d713e3f8c7&#45;&gt;_3ea409444ecd332a3620cefe191814941399f36443342368b8b0a78c57162d62</title>
<path fill="none" stroke="black" d="M86.5,-71.7C86.5,-63.98 86.5,-54.71 86.5,-46.11"/>
<polygon fill="black" stroke="black" points="90,-46.1 86.5,-36.1 83,-46.1 90,-46.1"/>
</g>
</g>
</svg>
