<?xml version="1.0" encoding="UTF-8" standalone="no"?>
<!DOCTYPE svg PUBLIC "-//W3C//DTD SVG 1.1//EN"
 "http://www.w3.org/Graphics/SVG/1.1/DTD/svg11.dtd">
<!-- Generated by graphviz version 2.43.0 (0)
 -->
<!-- Title: g Pages: 1 -->
<svg width="504pt" height="404pt"
 viewBox="0.00 0.00 503.50 404.00" xmlns="http://www.w3.org/2000/svg" xmlns:xlink="http://www.w3.org/1999/xlink">
<g id="graph0" class="graph" transform="scale(1 1) rotate(0) translate(4 400)">
<title>g</title>
<polygon fill="white" stroke="transparent" points="-4,4 -4,-400 499.5,-400 499.5,4 -4,4"/>
<!-- _1f3d1588978e9203dae9e63de967901c3b8bd18a28860e26379987ea54e7343c -->
<g id="node1" class="node">
<title>_1f3d1588978e9203dae9e63de967901c3b8bd18a28860e26379987ea54e7343c</title>
<polygon fill="orange" stroke="black" points="89,-324 0,-324 0,-288 89,-288 89,-324"/>
<text text-anchor="middle" x="44.5" y="-302.3" font-family="Times,serif" font-size="14.00">The spoon</text>
</g>
<!-- _2d3b417e56df029e08eb681d956b698327a2c942ef17ed1211429a5b350fa120 -->
<g id="node2" class="node">
<title>_2d3b417e56df029e08eb681d956b698327a2c942ef17ed1211429a5b350fa120</title>
<polygon fill="orange" stroke="black" points="214,-324 107,-324 107,-288 214,-288 214,-324"/>
<text text-anchor="middle" x="160.5" y="-302.3" font-family="Times,serif" font-size="14.00">Sugar in cup</text>
</g>
<!-- _431d09c5ad374b4513394852be7d1137ebf5094e0a3b7264bdf5d53d1d22497d -->
<g id="node3" class="node">
<title>_431d09c5ad374b4513394852be7d1137ebf5094e0a3b7264bdf5d53d1d22497d</title>
<polygon fill="orange" stroke="black" points="169,-36 96,-36 96,0 169,0 169,-36"/>
<text text-anchor="middle" x="132.5" y="-14.3" font-family="Times,serif" font-size="14.00">The cup</text>
</g>
<!-- _2d3b417e56df029e08eb681d956b698327a2c942ef17ed1211429a5b350fa120&#45;&gt;_431d09c5ad374b4513394852be7d1137ebf5094e0a3b7264bdf5d53d1d22497d -->
<g id="edge1" class="edge">
<title>_2d3b417e56df029e08eb681d956b698327a2c942ef17ed1211429a5b350fa120&#45;&gt;_431d09c5ad374b4513394852be7d1137ebf5094e0a3b7264bdf5d53d1d22497d</title>
<path fill="none" stroke="black" d="M156.07,-287.86C153.45,-277.51 150.14,-264.03 147.5,-252 140.5,-220.16 136.73,-212.44 133.5,-180 128.87,-133.47 129.87,-79.01 131.11,-46.84"/>
<polygon fill="black" stroke="black" points="134.62,-46.59 131.55,-36.45 127.63,-46.29 134.62,-46.59"/>
</g>
<!-- _c6cdaf95c19c62ffdd301ccab7506438fdec5af952aeeb06004fcd4c6ee44ad6 -->
<g id="node4" class="node">
<title>_c6cdaf95c19c62ffdd301ccab7506438fdec5af952aeeb06004fcd4c6ee44ad6</title>
<polygon fill="orange" stroke="black" points="258.5,-252 156.5,-252 156.5,-216 258.5,-216 258.5,-252"/>
<text text-anchor="middle" x="207.5" y="-230.3" font-family="Times,serif" font-size="14.00">Steeped tea</text>
</g>
<!-- _2d3b417e56df029e08eb681d956b698327a2c942ef17ed1211429a5b350fa120&#45;&gt;_c6cdaf95c19c62ffdd301ccab7506438fdec5af952aeeb06004fcd4c6ee44ad6 -->
<g id="edge2" class="edge">
<title>_2d3b417e56df029e08eb681d956b698327a2c942ef17ed1211429a5b350fa120&#45;&gt;_c6cdaf95c19c62ffdd301ccab7506438fdec5af952aeeb06004fcd4c6ee44ad6</title>
<path fill="none" stroke="black" d="M172.12,-287.7C177.64,-279.47 184.35,-269.48 190.43,-260.42"/>
<polygon fill="black" stroke="black" points="193.35,-262.36 196.02,-252.1 187.54,-258.46 193.35,-262.36"/>
</g>
<!-- _6e5e83a1d2910e57fe4856d6682a1d543695e6454c2d3683e57b42d713e3f8c7 -->
<g id="node8" class="node">
<title>_6e5e83a1d2910e57fe4856d6682a1d543695e6454c2d3683e57b42d713e3f8c7</title>
<polygon fill="orange" stroke="black" points="303,-180 142,-180 142,-144 303,-144 303,-180"/>
<text text-anchor="middle" x="222.5" y="-158.3" font-family="Times,serif" font-size="14.00">Boiling water in cup</text>
</g>
<!-- _c6cdaf95c19c62ffdd301ccab7506438fdec5af952aeeb06004fcd4c6ee44ad6&#45;&gt;_6e5e83a1d2910e57fe4856d6682a1d543695e6454c2d3683e57b42d713e3f8c7 -->
<g id="edge9" class="edge">
<title>_c6cdaf95c19c62ffdd301ccab7506438fdec5af952aeeb06004fcd4c6ee44ad6&#45;&gt;_6e5e83a1d2910e57fe4856d6682a1d543695e6454c2d3683e57b42d713e3f8c7</title>
<path fill="none" stroke="black" d="M211.21,-215.7C212.86,-207.98 214.85,-198.71 216.69,-190.11"/>
<polygon fill="black" stroke="black" points="220.16,-190.62 218.83,-180.1 213.32,-189.15 220.16,-190.62"/>
</g>
<!-- _39eab82852e63f55d6b643b2ff1ae2a3cb0dc43ebd93626af44d16c549d2c2fe -->
<g id="node5" class="node">
<title>_39eab82852e63f55d6b643b2ff1ae2a3cb0dc43ebd93626af44d16c549d2c2fe</title>
<polygon fill="orange" stroke="black" points="495.5,-36 187.5,-36 187.5,0 495.5,0 495.5,-36"/>
<text text-anchor="middle" x="341.5" y="-14.3" font-family="Times,serif" font-size="14.00">Box of tea bags (teatime/box&#45;of&#45;tea&#45;bags)</text>
</g>
<!-- _3ea409444ecd332a3620cefe191814941399f36443342368b8b0a78c57162d62 -->
<g id="node6" class="node">
<title>_3ea409444ecd332a3620cefe191814941399f36443342368b8b0a78c57162d62</title>
<polygon fill="orange" stroke="black" points="299.5,-108 179.5,-108 179.5,-72 299.5,-72 299.5,-108"/>
<text text-anchor="middle" x="239.5" y="-86.3" font-family="Times,serif" font-size="14.00">Tea bag in cup</text>
</g>
<!-- _3ea409444ecd332a3620cefe191814941399f36443342368b8b0a78c57162d62&#45;&gt;_431d09c5ad374b4513394852be7d1137ebf5094e0a3b7264bdf5d53d1d22497d -->
<g id="edge4" class="edge">
<title>_3ea409444ecd332a3620cefe191814941399f36443342368b8b0a78c57162d62&#45;&gt;_431d09c5ad374b4513394852be7d1137ebf5094e0a3b7264bdf5d53d1d22497d</title>
<path fill="none" stroke="black" d="M213.32,-71.88C199.46,-62.81 182.26,-51.55 167.29,-41.76"/>
<polygon fill="black" stroke="black" points="169.06,-38.74 158.78,-36.19 165.23,-44.59 169.06,-38.74"/>
</g>
<!-- _3ea409444ecd332a3620cefe191814941399f36443342368b8b0a78c57162d62&#45;&gt;_39eab82852e63f55d6b643b2ff1ae2a3cb0dc43ebd93626af44d16c549d2c2fe -->
<g id="edge3" class="edge">
<title>_3ea409444ecd332a3620cefe191814941399f36443342368b8b0a78c57162d62&#45;&gt;_39eab82852e63f55d6b643b2ff1ae2a3cb0dc43ebd93626af44d16c549d2c2fe</title>
<path fill="none" stroke="black" d="M264.45,-71.88C277.54,-62.89 293.76,-51.76 307.94,-42.03"/>
<polygon fill="black" stroke="black" points="310.19,-44.73 316.45,-36.19 306.23,-38.96 310.19,-44.73"/>
</g>
<!-- _53038717935d18bd075bac751e2a415fb621ff0a7119467b07f6523f0c4b4e36 -->
<g id="node7" class="node">
<title>_53038717935d18bd075bac751e2a415fb621ff0a7119467b07f6523f0c4b4e36</title>
<polygon fill="orange" stroke="black" points="189,-396 16,-396 16,-360 189,-360 189,-396"/>
<text text-anchor="middle" x="102.5" y="-374.3" font-family="Times,serif" font-size="14.00">The perfect cup of tea</text>
</g>
<!-- _53038717935d18bd075bac751e2a415fb621ff0a7119467b07f6523f0c4b4e36&#45;&gt;_1f3d1588978e9203dae9e63de967901c3b8bd18a28860e26379987ea54e7343c -->
<g id="edge5" class="edge">
<title>_53038717935d18bd075bac751e2a415fb621ff0a7119467b07f6523f0c4b4e36&#45;&gt;_1f3d1588978e9203dae9e63de967901c3b8bd18a28860e26379987ea54e7343c</title>
<path fill="none" stroke="black" d="M88.16,-359.7C81.21,-351.3 72.73,-341.07 65.1,-331.86"/>
<polygon fill="black" stroke="black" points="67.75,-329.57 58.67,-324.1 62.36,-334.04 67.75,-329.57"/>
</g>
<!-- _53038717935d18bd075bac751e2a415fb621ff0a7119467b07f6523f0c4b4e36&#45;&gt;_2d3b417e56df029e08eb681d956b698327a2c942ef17ed1211429a5b350fa120 -->
<g id="edge6" class="edge">
<title>_53038717935d18bd075bac751e2a415fb621ff0a7119467b07f6523f0c4b4e36&#45;&gt;_2d3b417e56df029e08eb681d956b698327a2c942ef17ed1211429a5b350fa120</title>
<path fill="none" stroke="black" d="M116.84,-359.7C123.79,-351.3 132.27,-341.07 139.9,-331.86"/>
<polygon fill="black" stroke="black" points="142.64,-334.04 146.33,-324.1 137.25,-329.57 142.64,-334.04"/>
</g>
<!-- _6e5e83a1d2910e57fe4856d6682a1d543695e6454c2d3683e57b42d713e3f8c7&#45;&gt;_431d09c5ad374b4513394852be7d1137ebf5094e0a3b7264bdf5d53d1d22497d -->
<g id="edge8" class="edge">
<title>_6e5e83a1d2910e57fe4856d6682a1d543695e6454c2d3683e57b42d713e3f8c7&#45;&gt;_431d09c5ad374b4513394852be7d1137ebf5094e0a3b7264bdf5d53d1d22497d</title>
<path fill="none" stroke="black" d="M202.37,-143.85C191.87,-134.13 179.39,-121.28 170.5,-108 157.49,-88.56 147.39,-63.94 140.89,-45.53"/>
<polygon fill="black" stroke="black" points="144.18,-44.35 137.65,-36.01 137.56,-46.6 144.18,-44.35"/>
</g>
<!-- _6e5e83a1d2910e57fe4856d6682a1d543695e6454c2d3683e57b42d713e3f8c7&#45;&gt;_3ea409444ecd332a3620cefe191814941399f36443342368b8b0a78c57162d62 -->
<g id="edge7" class="edge">
<title>_6e5e83a1d2910e57fe4856d6682a1d543695e6454c2d3683e57b42d713e3f8c7&#45;&gt;_3ea409444ecd332a3620cefe191814941399f36443342368b8b0a78c57162d62</title>
<path fill="none" stroke="black" d="M226.7,-143.7C228.6,-135.9 230.88,-126.51 232.98,-117.83"/>
<polygon fill="black" stroke="black" points="236.39,-118.65 235.35,-108.1 229.58,-117 236.39,-118.65"/>
</g>
</g>
</svg>
