<?xml version="1.0" encoding="UTF-8" standalone="no"?>
<!DOCTYPE svg PUBLIC "-//W3C//DTD SVG 1.1//EN"
 "http://www.w3.org/Graphics/SVG/1.1/DTD/svg11.dtd">
<!-- Generated by graphviz version 2.43.0 (0)
 -->
<!-- Title: g Pages: 1 -->
<svg width="522pt" height="404pt"
 viewBox="0.00 0.00 521.63 404.00" xmlns="http://www.w3.org/2000/svg" xmlns:xlink="http://www.w3.org/1999/xlink">
<g id="graph0" class="graph" transform="scale(1 1) rotate(0) translate(4 400)">
<title>g</title>
<polygon fill="white" stroke="transparent" points="-4,4 -4,-400 517.63,-400 517.63,4 -4,4"/>
<!-- _3fe9ac8d23e9a6fea1dd577578f21943 -->
<g id="node1" class="node">
<title>_3fe9ac8d23e9a6fea1dd577578f21943</title>
<ellipse fill="orange" stroke="black" cx="313.45" cy="-18" rx="200.36" ry="18"/>
<text text-anchor="middle" x="313.45" y="-14.3" font-family="Times,serif" font-size="14.00">Box of tea bags (teatime/box&#45;of&#45;tea&#45;bags)</text>
</g>
<!-- _63d2ed416115be6cf86c48e10dacf755 -->
<g id="node2" class="node">
<title>_63d2ed416115be6cf86c48e10dacf755</title>
<ellipse fill="orange" stroke="black" cx="75.45" cy="-306" rx="69.59" ry="18"/>
<text text-anchor="middle" x="75.45" y="-302.3" font-family="Times,serif" font-size="14.00">Sugar in cup</text>
</g>
<!-- _d984f9c4faa6c4364241b6d25d460c04 -->
<g id="node3" class="node">
<title>_d984f9c4faa6c4364241b6d25d460c04</title>
<ellipse fill="palegreen" stroke="black" cx="47.45" cy="-18" rx="47.39" ry="18"/>
<text text-anchor="middle" x="47.45" y="-14.3" font-family="Times,serif" font-size="14.00">The cup</text>
</g>
<!-- _63d2ed416115be6cf86c48e10dacf755&#45;&gt;_d984f9c4faa6c4364241b6d25d460c04 -->
<g id="edge1" class="edge">
<title>_63d2ed416115be6cf86c48e10dacf755&#45;&gt;_d984f9c4faa6c4364241b6d25d460c04</title>
<path fill="none" stroke="black" d="M70.33,-287.81C63.5,-263.9 51.77,-219.12 47.45,-180 42.3,-133.53 43.88,-79.05 45.59,-46.86"/>
<polygon fill="black" stroke="black" points="49.11,-46.65 46.19,-36.46 42.12,-46.24 49.11,-46.65"/>
</g>
<!-- _fc7725b504dfe81a0923659641500bf6 -->
<g id="node4" class="node">
<title>_fc7725b504dfe81a0923659641500bf6</title>
<ellipse fill="orange" stroke="black" cx="141.45" cy="-234" rx="66.09" ry="18"/>
<text text-anchor="middle" x="141.45" y="-230.3" font-family="Times,serif" font-size="14.00">Steeped tea</text>
</g>
<!-- _63d2ed416115be6cf86c48e10dacf755&#45;&gt;_fc7725b504dfe81a0923659641500bf6 -->
<g id="edge2" class="edge">
<title>_63d2ed416115be6cf86c48e10dacf755&#45;&gt;_fc7725b504dfe81a0923659641500bf6</title>
<path fill="none" stroke="black" d="M91.09,-288.41C99.27,-279.73 109.44,-268.95 118.49,-259.34"/>
<polygon fill="black" stroke="black" points="121.14,-261.63 125.46,-251.96 116.05,-256.83 121.14,-261.63"/>
</g>
<!-- _e2ae5a6ebee14aca44ab9445c4149406 -->
<g id="node8" class="node">
<title>_e2ae5a6ebee14aca44ab9445c4149406</title>
<ellipse fill="orange" stroke="black" cx="161.45" cy="-162" rx="104.78" ry="18"/>
<text text-anchor="middle" x="161.45" y="-158.3" font-family="Times,serif" font-size="14.00">Boiling water in cup</text>
</g>
<!-- _fc7725b504dfe81a0923659641500bf6&#45;&gt;_e2ae5a6ebee14aca44ab9445c4149406 -->
<g id="edge9" class="edge">
<title>_fc7725b504dfe81a0923659641500bf6&#45;&gt;_e2ae5a6ebee14aca44ab9445c4149406</title>
<path fill="none" stroke="black" d="M146.39,-215.7C148.62,-207.9 151.3,-198.51 153.78,-189.83"/>
<polygon fill="black" stroke="black" points="157.18,-190.68 156.56,-180.1 150.45,-188.76 157.18,-190.68"/>
</g>
<!-- _6ac80c9b9d540f4035cde8e540cb0369 -->
<g id="node5" class="node">
<title>_6ac80c9b9d540f4035cde8e540cb0369</title>
<ellipse fill="orange" stroke="black" cx="147.45" cy="-378" rx="112.38" ry="18"/>
<text text-anchor="middle" x="147.45" y="-374.3" font-family="Times,serif" font-size="14.00">The perfect cup of tea</text>
</g>
<!-- _6ac80c9b9d540f4035cde8e540cb0369&#45;&gt;_63d2ed416115be6cf86c48e10dacf755 -->
<g id="edge3" class="edge">
<title>_6ac80c9b9d540f4035cde8e540cb0369&#45;&gt;_63d2ed416115be6cf86c48e10dacf755</title>
<path fill="none" stroke="black" d="M130.02,-360.05C121,-351.28 109.83,-340.43 99.96,-330.83"/>
<polygon fill="black" stroke="black" points="102.32,-328.25 92.71,-323.79 97.44,-333.27 102.32,-328.25"/>
</g>
<!-- _f96122fa7e52309e13d76ba3ebde47a2 -->
<g id="node6" class="node">
<title>_f96122fa7e52309e13d76ba3ebde47a2</title>
<ellipse fill="palegreen" stroke="black" cx="220.45" cy="-306" rx="57.69" ry="18"/>
<text text-anchor="middle" x="220.45" y="-302.3" font-family="Times,serif" font-size="14.00">The spoon</text>
</g>
<!-- _6ac80c9b9d540f4035cde8e540cb0369&#45;&gt;_f96122fa7e52309e13d76ba3ebde47a2 -->
<g id="edge4" class="edge">
<title>_6ac80c9b9d540f4035cde8e540cb0369&#45;&gt;_f96122fa7e52309e13d76ba3ebde47a2</title>
<path fill="none" stroke="black" d="M165.12,-360.05C174.4,-351.16 185.91,-340.11 196.03,-330.41"/>
<polygon fill="black" stroke="black" points="198.64,-332.75 203.44,-323.31 193.8,-327.7 198.64,-332.75"/>
</g>
<!-- _d076bb8591b50bca08256b8559aca6b5 -->
<g id="node7" class="node">
<title>_d076bb8591b50bca08256b8559aca6b5</title>
<ellipse fill="orange" stroke="black" cx="172.45" cy="-90" rx="77.99" ry="18"/>
<text text-anchor="middle" x="172.45" y="-86.3" font-family="Times,serif" font-size="14.00">Tea bag in cup</text>
</g>
<!-- _d076bb8591b50bca08256b8559aca6b5&#45;&gt;_3fe9ac8d23e9a6fea1dd577578f21943 -->
<g id="edge5" class="edge">
<title>_d076bb8591b50bca08256b8559aca6b5&#45;&gt;_3fe9ac8d23e9a6fea1dd577578f21943</title>
<path fill="none" stroke="black" d="M203.74,-73.46C223.24,-63.78 248.62,-51.18 270.06,-40.54"/>
<polygon fill="black" stroke="black" points="271.88,-43.54 279.28,-35.96 268.77,-37.27 271.88,-43.54"/>
</g>
<!-- _d076bb8591b50bca08256b8559aca6b5&#45;&gt;_d984f9c4faa6c4364241b6d25d460c04 -->
<g id="edge6" class="edge">
<title>_d076bb8591b50bca08256b8559aca6b5&#45;&gt;_d984f9c4faa6c4364241b6d25d460c04</title>
<path fill="none" stroke="black" d="M144.08,-73.12C125.68,-62.81 101.57,-49.31 82.04,-38.37"/>
<polygon fill="black" stroke="black" points="83.58,-35.22 73.15,-33.39 80.16,-41.33 83.58,-35.22"/>
</g>
<!-- _e2ae5a6ebee14aca44ab9445c4149406&#45;&gt;_d984f9c4faa6c4364241b6d25d460c04 -->
<g id="edge8" class="edge">
<title>_e2ae5a6ebee14aca44ab9445c4149406&#45;&gt;_d984f9c4faa6c4364241b6d25d460c04</title>
<path fill="none" stroke="black" d="M130.2,-144.7C115.08,-135.56 97.62,-122.98 85.45,-108 70.6,-89.74 60.62,-64.82 54.63,-45.99"/>
<polygon fill="black" stroke="black" points="57.93,-44.82 51.71,-36.24 51.23,-46.83 57.93,-44.82"/>
</g>
<!-- _e2ae5a6ebee14aca44ab9445c4149406&#45;&gt;_d076bb8591b50bca08256b8559aca6b5 -->
<g id="edge7" class="edge">
<title>_e2ae5a6ebee14aca44ab9445c4149406&#45;&gt;_d076bb8591b50bca08256b8559aca6b5</title>
<path fill="none" stroke="black" d="M164.16,-143.7C165.38,-135.98 166.83,-126.71 168.19,-118.11"/>
<polygon fill="black" stroke="black" points="171.66,-118.53 169.76,-108.1 164.75,-117.44 171.66,-118.53"/>
</g>
</g>
</svg>
